# xmcd
#
# Track frame offsets:
# 182
# 20355
# 40687
# 71962
# 90475
# 108397
# 129555
# 149430
# 170135
# 189902
# 206085
# 219262
# 245972
# 271575
# 288145
# 306100
# 320132
# 338152
#
# Disc length: 4649 seconds
#
#
# Revision: 0
# Processed by: cddbd v1.5.1PL0 Copyright (c) Steve Scherf et al.
# Submitted via: FreeRIP 2.60 
#
DISCID=11122712
DTITLE=Various Artist - the blues
DYEAR=1900
DGENRE=blues
TTITLE0=buddy guy /damn right i got the blues
TTITLE1=jim suhler /doncha hang aroun my door
TTITLE2=george bedard/cold ,cold feeling
TTITLE3=the wailin walker band - let the good times roll
TTITLE4=charles brown /7 long days
TTITLE5=big bad smitty - lonely man
TTITLE6=studebaker john en the hawks /roll,roll,roll
TTITLE7=roland /mailbox blues
TTITLE8=lil'ed /what you see is what you get
TTITLE9=robert ward /soap opera blues
TTITLE10=the paladins/going down to big mary's
TTITLE11=the elmores /alone in the country
TTITLE12=the holmes brothers/that's where it's at
TTITLE13=bill carter/ can't you take a hint
TTITLE14=roomfull of blues /that's my life
TTITLE15=monti amundson/broke down car
TTITLE16=stevie ray vaughan/cold shot
TTITLE17=rob rio /fat girl boogie
EXTD=
EXTT0=
EXTT1=
EXTT2=
EXTT3=
EXTT4=
EXTT5=
EXTT6=
EXTT7=
EXTT8=
EXTT9=
EXTT10=
EXTT11=
EXTT12=
EXTT13=
EXTT14=
EXTT15=
EXTT16=
EXTT17=
PLAYORDER=
